<svg id="Livello_1" data-name="Livello 1" xmlns="http://www.w3.org/2000/svg" viewBox="0 0 158.4 158.4"><defs><style>.cls-1{fill:#fff;}</style></defs><title>asterisco</title><path class="cls-1" d="M158.26,79.06a9.77,9.77,0,0,1-9.6,9.88h-46l32.47,32.47a10.07,10.07,0,0,1,0,13.84,9.67,9.67,0,0,1-6.78,2.82,8.79,8.79,0,0,1-6.78-2.82L89.08,102.78v46a9.52,9.52,0,0,1-9.6,9.6,9.77,9.77,0,0,1-9.88-9.6v-46L37.13,135.25a10.07,10.07,0,0,1-13.84,0,10.07,10.07,0,0,1,0-13.84L55.76,88.94h-46a9.74,9.74,0,0,1,0-19.48h46L23.29,37a10.07,10.07,0,0,1,0-13.84,10.07,10.07,0,0,1,13.84,0L69.6,55.62V9.6A9.77,9.77,0,0,1,79.48,0a9.52,9.52,0,0,1,9.6,9.6v46l32.47-32.47a10.07,10.07,0,0,1,13.84,0,9.67,9.67,0,0,1,2.82,6.78,9.21,9.21,0,0,1-2.82,6.78L102.92,69.18h46A10.11,10.11,0,0,1,158.26,79.06Z"/></svg>
