<svg id="Livello_1" data-name="Livello 1" xmlns="http://www.w3.org/2000/svg" viewBox="0 0 156.96 156.96"><defs><style>.cls-1{fill:#fff;}</style></defs><title>rombo</title><path class="cls-1" d="M157.05,78.48A9.56,9.56,0,0,1,147.53,88H133a44.77,44.77,0,0,0-44.82,44.82v14a10,10,0,0,1-8.68,10.08,9.72,9.72,0,0,1-10.64-9.52V132.82A44.77,44.77,0,0,0,24,88H9.43a9.53,9.53,0,0,1,0-19H24A44.77,44.77,0,0,0,68.82,24.13v-14c0-5.05,3.92-9.81,9-10.09a9.5,9.5,0,0,1,7.56,2.8,9.8,9.8,0,0,1,2.8,6.73V24.13A44.77,44.77,0,0,0,133,69h14.57A9.63,9.63,0,0,1,157.05,78.48Z"/></svg>