<svg id="Livello_1" data-name="Livello 1" xmlns="http://www.w3.org/2000/svg" viewBox="0 0 532.8 127.19"><defs><style>.cls-1{fill:#fff;}</style></defs><title>komiu_astrerisco</title><path class="cls-1" d="M82.64,125.48,50.88,75,16.56,125.48H1V.79H19.76V85.41L18.69,96.92,23,85.41,77.52.79h22L61.53,59l43.27,66.5Z"/><path class="cls-1" d="M120.79,82.43c0-25.79,19.39-44.76,46.25-44.76,27.28,0,46.47,18.33,46.47,44.76,0,25.57-19.61,44.76-46.47,44.76C140,127.19,120.79,108.43,120.79,82.43Zm74.17,0C195,65.8,183.88,54.29,167,54.29c-16.2,0-27.71,11.72-27.71,28.14,0,16.2,11.51,28.13,27.71,28.13C183.45,110.56,195,98.63,195,82.43Z"/><path class="cls-1" d="M375.5,73.9v51.58H357.17V76.88c0-14.49-6.61-21.95-18.33-21.95C324.13,54.93,316,65,316,79.44v46H297.7V76.88c0-14.49-6.39-21.95-18.12-21.95-14.92,0-22.8,10-22.8,24.51v46H238.45V39.37h17.69V54.29c6-11.08,15.34-16.62,27.92-16.62,13.21,0,22.81,5.75,27.92,17.69,6.61-12.37,17.69-17.69,31.33-17.69C363.14,37.67,375.5,51.52,375.5,73.9Z"/><path class="cls-1" d="M400.86,12.09c0-6.61,4.9-11.72,11.94-11.72a11.3,11.3,0,0,1,11.72,11.72A11.42,11.42,0,0,1,412.8,23.81C406,23.81,400.86,18.91,400.86,12.09Zm2.77,27.28H422v86.11H403.63Z"/><path class="cls-1" d="M451.8,88.39v-49h18.33V87.12c0,14.92,7.89,23,22.17,23s22.17-8.1,22.17-23V39.37H532.8v49c0,24.52-14.92,38.8-40.5,38.8S451.8,112.69,451.8,88.39Z"/></svg>
